<svg xmlns="http://www.w3.org/2000/svg" viewBox="0 0 511.989 511.989"><path d="M469.335 251.81H42.679c-11.765 0-21.335 9.578-21.335 21.343v159.992c0 10.469 7.484 20.844 17.414 24.156l11.765 3.922c3.164 1.062 6.945 1.609 10.929 1.609 6.164 0 12.304-1.312 16.867-3.594l2.25-1.125c.781-.375 2.492-.828 4.773-.828s3.992.453 4.773.828l2.25 1.125c5.117 2.562 10.601 3.109 14.312 3.109 3.703 0 9.194-.547 14.312-3.109l2.25-1.125c.773-.375 2.492-.828 4.766-.828 2.281 0 4 .453 4.773.828l2.25 1.125c5.117 2.562 10.609 3.109 14.312 3.109s9.195-.547 14.312-3.109l2.25-1.125c.781-.375 2.492-.828 4.773-.828 2.273 0 3.992.453 4.766.828l2.258 1.125c5.109 2.562 10.601 3.109 14.304 3.109 3.711 0 9.203-.547 14.312-3.109l2.25-1.125c.781-.375 2.492-.828 4.773-.828 2.281 0 3.992.453 4.773.828l2.25 1.125c5.117 2.562 10.601 3.109 14.312 3.109 3.703 0 9.195-.547 14.304-3.109l2.258-1.125c.773-.375 2.492-.828 4.766-.828 2.281 0 4 .453 4.773.828l2.25 1.125c5.117 2.562 10.602 3.109 14.32 3.109 3.687 0 9.187-.547 14.312-3.109l2.25-1.125c.781-.375 2.483-.828 4.765-.828 2.266 0 3.984.453 4.766.828l2.25 1.125c5.125 2.562 10.608 3.109 14.312 3.109 3.719 0 9.203-.547 14.312-3.109l2.25-1.125c.781-.375 2.5-.828 4.781-.828s3.984.453 4.765.828l2.25 1.125c5.109 2.562 10.609 3.109 14.312 3.109s9.203-.547 14.312-3.109l2.25-1.125c.766-.375 2.484-.828 4.766-.828s4 .453 4.781.828l2.25 1.125c5.109 2.562 10.594 3.109 14.312 3.109 3.703 0 9.187-.547 14.312-3.109l2.25-1.125c.781-.375 2.484-.828 4.766-.828 2.279 0 3.982.453 4.764.828l2.25 1.125c4.562 2.281 10.719 3.594 16.875 3.594 3.984 0 7.766-.547 10.938-1.609l11.75-3.922c9.937-3.312 17.421-13.688 17.421-24.156V273.153c-.004-11.765-9.582-21.343-21.331-21.343z" fill="#e6e9ed"/><path d="M85.341 371.368c-5.89 0-10.664 4.781-10.664 10.672v78.715a26.567 26.567 0 0 0 3.641-1.516l2.25-1.125c.781-.375 2.492-.828 4.773-.828s3.992.453 4.773.828l2.25 1.125a27.13 27.13 0 0 0 3.641 1.5V382.04c0-5.891-4.773-10.672-10.664-10.672zm202.657 89.371v-38.264c0-5.891-4.781-10.672-10.655-10.672-5.898 0-10.672 4.781-10.672 10.672v38.264c3.953 1.281 7.828 1.609 10.672 1.609 2.827.001 6.702-.328 10.655-1.609zm95.996-112.933c-5.891 0-10.656 4.781-10.656 10.672V460.74a26.706 26.706 0 0 0 3.641-1.5l2.25-1.125c.766-.375 2.484-.828 4.766-.828s4 .453 4.781.828l2.25 1.125c1.188.609 2.422 1.094 3.641 1.5V358.477c-.001-5.89-4.767-10.671-10.673-10.671zm-234.655 42.671c-5.89 0-10.664 4.779-10.664 10.67v59.592c3.953 1.281 7.828 1.609 10.664 1.609s6.711-.328 10.664-1.609v-59.592c0-5.89-4.774-10.67-10.664-10.67z" fill="#ccd1d9"/><path d="M437.335 49.162h-298.66c-52.936 0-95.996 43.061-95.996 95.996v42.655h85.325v-42.655c0-5.891 4.789-10.672 10.671-10.672h298.66c23.531 0 42.655-19.139 42.655-42.669 0-23.516-19.124-42.655-42.655-42.655z" fill="#4a89dc"/><path fill="#656d78" d="M170.679 49.157h213.32v85.32h-213.32z"/><path d="M341.34 59.818c5.874 0 10.655-4.766 10.655-10.656h-21.327c0 5.89 4.766 10.656 10.672 10.656zm-42.671 0c5.891 0 10.672-4.766 10.672-10.656h-21.343c0 5.89 4.781 10.656 10.671 10.656zm-42.662 0c5.891 0 10.664-4.766 10.664-10.656h-21.335c-.001 5.89 4.78 10.656 10.671 10.656zm-42.662 0c5.89 0 10.664-4.766 10.664-10.656h-21.335c-.001 5.89 4.78 10.656 10.671 10.656z" fill="#434a54"/><path d="M511.989 273.153H.009v-85.341c0-11.75 9.57-21.327 21.335-21.327h469.318c11.765 0 21.327 9.577 21.327 21.327v85.341z" fill="#5d9cec"/><path fill="#4a89dc" d="M0 198.487h511.98v21.328H0z"/></svg>