<svg xmlns="http://www.w3.org/2000/svg" viewBox="0 0 511.98 511.98"><path fill="#fff" d="M40.498 47.06h430.97v31.999H40.498z"/><path fill="#4fc2e9" d="M426.64 437.322H85.324L31.999 10.659h447.982z"/><path fill="#3bafda" d="M469.31 95.992l2.672-21.335H39.998l2.657 21.335z"/><path d="M501.308 330.638h-255.99c-5.891 0-10.672 4.781-10.672 10.688v32c0 5.875 4.781 10.656 10.672 10.656h255.99c5.891 0 10.672-4.781 10.672-10.656v-32c0-5.906-4.781-10.688-10.672-10.688z" fill="#656d78"/><path d="M458.638 341.326c5.891 0 10.672-4.781 10.672-10.688h-21.328c0 5.907 4.766 10.688 10.656 10.688zm-42.654 0c5.891 0 10.656-4.781 10.656-10.688h-21.327c0 5.907 4.781 10.688 10.671 10.688zm-42.671 0c5.891 0 10.672-4.781 10.672-10.688h-21.344c0 5.907 4.782 10.688 10.672 10.688zm-42.67 0c5.891 0 10.672-4.781 10.672-10.688h-21.328c0 5.907 4.766 10.688 10.656 10.688zm-42.654 0c5.891 0 10.655-4.781 10.655-10.688h-21.326c0 5.907 4.78 10.688 10.671 10.688z" fill="#434a54"/><path d="M85.324 21.331c5.891 0 10.672-4.781 10.672-10.672H74.653c0 5.891 4.781 10.672 10.671 10.672zm42.671 0c5.89 0 10.656-4.781 10.656-10.672h-21.328c0 5.891 4.781 10.672 10.672 10.672zm42.654 0c5.891 0 10.671-4.781 10.671-10.672h-21.327c.001 5.891 4.766 10.672 10.656 10.672zm42.671 0c5.89 0 10.671-4.781 10.671-10.672h-21.343c0 5.891 4.781 10.672 10.672 10.672zm42.67 0c5.891 0 10.656-4.781 10.656-10.672h-21.328c.001 5.891 4.781 10.672 10.672 10.672zm42.67 0c5.891 0 10.656-4.781 10.656-10.672h-21.327c0 5.891 4.781 10.672 10.671 10.672zm42.655 0c5.89 0 10.671-4.781 10.671-10.672h-21.327c0 5.891 4.766 10.672 10.656 10.672zm42.67 0c5.891 0 10.672-4.781 10.672-10.672h-21.344c0 5.891 4.781 10.672 10.672 10.672zm42.671 0c5.889 0 10.67-4.781 10.67-10.672h-21.342c0 5.891 4.781 10.672 10.672 10.672z" fill="#3bafda"/><path d="M474.638 53.33l-2.656 21.327h17.702c-2.156 24.156-8.016 47.624-17.483 70.005-11.812 27.937-28.734 53.037-50.295 74.591-21.546 21.561-46.655 38.482-74.592 50.303-28.921 12.227-59.638 18.43-91.324 18.43-31.702 0-62.419-6.203-91.34-18.43-27.937-11.82-53.044-28.742-74.591-50.303-21.562-21.554-38.483-46.655-50.311-74.591-9.453-22.382-15.312-45.85-17.468-70.005h17.718L37.326 53.33H0c0 141.377 114.605 255.998 255.99 255.998 141.37 0 255.99-114.621 255.99-255.998h-37.342z" fill="#434a54"/><path d="M501.308 362.638h-255.99c-5.891 0-10.672 4.781-10.672 10.688v117.309c0 5.904 4.781 10.686 10.672 10.686h255.99c5.891 0 10.672-4.781 10.672-10.686V373.326c0-5.906-4.781-10.688-10.672-10.688z" fill="#ffce54"/><path d="M280.442 440.431c-4.171 4.172-4.171 10.922 0 15.078 4.156 4.188 10.922 4.188 15.078 0 4.171-4.156 4.171-10.906 0-15.078-4.156-4.171-10.922-4.171-15.078 0zm42.654-42.67c-4.156 4.172-4.156 10.938 0 15.094 4.172 4.156 10.922 4.156 15.094 0s4.172-10.922 0-15.094c-4.172-4.156-10.922-4.156-15.094 0zm42.67 42.67c-4.155 4.172-4.155 10.922 0 15.078a10.637 10.637 0 0 0 15.094 0c4.156-4.156 4.156-10.906 0-15.078a10.668 10.668 0 0 0-15.094 0zm42.672-42.67c-4.172 4.172-4.172 10.938 0 15.094 4.155 4.156 10.921 4.156 15.077 0 4.17-4.156 4.17-10.922 0-15.094-4.156-4.156-10.921-4.156-15.077 0zm57.747 42.67a10.666 10.666 0 0 0-15.094 0c-4.156 4.172-4.156 10.922 0 15.078a10.637 10.637 0 0 0 15.094 0c4.172-4.156 4.172-10.906 0-15.078z" fill="#f6bb42"/></svg>