<svg xmlns="http://www.w3.org/2000/svg" viewBox="0 0 511.989 511.989"><path fill="#e9573f" d="M383.994 138.664h63.997v31.999h-63.997z"/><path d="M447.99 149.338h-63.997c-5.906 0-10.656-4.781-10.656-10.672 0-5.89 4.75-10.671 10.656-10.671h63.997c5.875 0 10.656 4.781 10.656 10.671 0 5.891-4.781 10.672-10.656 10.672z" fill="#fc6e51"/><path d="M423.523 99.121a10.64 10.64 0 0 1 0 15.093c-4.156 4.156-10.906 4.156-15.062 0a10.636 10.636 0 0 1 0-15.093c4.156-4.156 10.906-4.156 15.062 0zm42.686-42.654c4.156 4.155 4.156 10.905 0 15.077-4.188 4.172-10.938 4.172-15.094 0-4.156-4.171-4.156-10.921 0-15.077 4.156-4.172 10.906-4.172 15.094 0zm-85.341 21.327c4.156 4.156 4.156 10.922 0 15.078-4.156 4.171-10.906 4.171-15.094 0-4.155-4.156-4.155-10.922 0-15.078 4.188-4.172 10.938-4.172 15.094 0zm42.655-42.67a10.64 10.64 0 0 1 0 15.093c-4.156 4.156-10.906 4.156-15.062 0a10.636 10.636 0 0 1 0-15.093c4.156-4.156 10.906-4.156 15.062 0zm-95.778 95.777c-36.248-36.264-84.458-56.232-135.753-56.232-51.279 0-99.496 19.968-135.744 56.232C19.983 167.165 0 215.382 0 266.661s19.983 99.496 56.248 135.761c36.248 36.264 84.465 56.232 135.744 56.232 51.295 0 99.505-19.969 135.753-56.232 36.279-36.265 56.248-84.481 56.248-135.761 0-51.278-19.969-99.496-56.248-135.76z" fill="#e6e9ed"/><path d="M191.992 159.994c-58.811 0-106.652 47.857-106.652 106.667s47.842 106.668 106.652 106.668c58.826 0 106.66-47.858 106.66-106.668s-47.834-106.667-106.66-106.667z" fill="#ccd1d9"/><path d="M106.668 266.661c0-55.216 42.17-100.761 95.996-106.136a109.346 109.346 0 0 0-10.672-.531c-58.811 0-106.652 47.857-106.652 106.667s47.842 106.668 106.652 106.668c3.609 0 7.156-.188 10.672-.547-53.826-5.359-95.996-50.904-95.996-106.121z" fill="#aab2bc"/><path d="M491.114 259.333c6.687-10.874 10.218-23.092 10.218-35.56 0-38.733-33.498-63.779-85.34-63.779-51.843 0-85.341 25.046-85.341 63.779 0 12.467 3.531 24.686 10.219 35.56l-20.938 177.978.125 1.25c.125 1.031 1.344 10.375 6.688 19.953 7.75 13.843 20.499 21.468 35.904 21.468h106.685c17.03 0 30.342-7.766 37.436-21.874 5-9.938 5.219-19.656 5.219-20.719v-.656l-20.875-177.4z" fill="#fc6e51"/><path fill="#ffce54" d="M494.488 287.989H337.495l-12.563 106.667h182.119z"/><path d="M448.178 351.986h-63.997c-5.906 0-10.656-4.766-10.656-10.656s4.75-10.672 10.656-10.672h63.997c5.875 0 10.656 4.781 10.656 10.672s-4.781 10.656-10.656 10.656z" fill="#434a54"/><path d="M491.114 259.333c6.687-10.874 10.218-23.092 10.218-35.56 0-38.733-33.498-63.779-85.34-63.779-1.812 0-3.594.031-5.343.094 48.778 1.672 79.996 26.296 79.996 63.686 0 12.467-3.5 24.686-10.188 35.56l20.874 177.399v.656c-.031 1.062-.219 10.781-5.219 20.719-7.093 14.108-20.404 21.874-37.467 21.874h10.688c17.03 0 30.342-7.766 37.436-21.874 5-9.938 5.219-19.656 5.219-20.719v-.656l-20.874-177.4z" opacity=".2" fill="#fff"/></svg>