<svg xmlns="http://www.w3.org/2000/svg" viewBox="0 0 511.98 511.98"><path fill="#aab2bc" d="M371.534 190.953l-27.904-57.591 19.201-9.305 27.906 57.6z"/><path fill="#5d9cec" d="M43.196 234.662l34.67 277.318h210.812l34.67-277.318z"/><path fill="#656d78" d="M478.014 68.262L228.438 189.157l-27.889-57.592L450.125 10.663z"/><g fill="#434a54"><path d="M228.454 199.828a10.683 10.683 0 0 1-9.609-6.023l-27.905-57.592a10.755 10.755 0 0 1-.469-8.148 10.67 10.67 0 0 1 5.438-6.101L445.469 1.07c5.312-2.57 11.688-.352 14.25 4.944l27.905 57.6a10.618 10.618 0 0 1 .469 8.148 10.646 10.646 0 0 1-5.422 6.102L233.094 198.758a10.61 10.61 0 0 1-4.64 1.07zm-13.656-63.318l18.608 38.397L463.765 63.309l-18.594-38.396L214.798 136.51z"/><path d="M219.157 169.962l-9.312-19.202L459.422 29.865l9.297 19.195z"/></g><path d="M409.925 172.352c-2.547-5.273-8.969-7.507-14.25-4.945l-38.39 18.601c-5.281 2.555-7.516 8.968-4.953 14.249l46.499 95.998c2.562 5.28 8.969 7.499 14.249 4.937l38.404-18.593c5.281-2.562 7.5-8.969 4.938-14.25l-46.497-95.997z" fill="#48cfad"/><path fill="#4a89dc" d="M49.867 287.989h266.81l2.671-21.328H47.196z"/><path d="M343.255 266.661h-23.906l-2.672 21.328h4.547c-1.344 13.015-5.297 36.169-16.827 59.231-22.812 45.624-63.552 68.764-121.113 68.764-57.294 0-97.949-22.921-120.823-68.139-11.703-23.156-15.733-46.686-17.124-59.856h4.531l-2.671-21.328H23.29v10.656c0 1.625.219 40.295 19.781 79.435 18.374 36.748 57.607 80.559 140.213 80.559 82.591 0 121.832-43.811 140.206-80.559 19.562-39.14 19.781-77.81 19.781-79.435l-.016-10.656z" fill="#434a54"/></svg>