<svg xmlns="http://www.w3.org/2000/svg" viewBox="0 0 509.287 509.287"><circle cx="254.644" cy="254.644" r="254.644" fill="#6eb1e1"/><circle cx="254.644" cy="254.644" r="208.53" fill="#fcfcfd"/><g fill="#4f5565"><path d="M254.644 272.954a18.234 18.234 0 0 1-18.31-18.31v-139.02a18.234 18.234 0 0 1 18.31-18.31 18.234 18.234 0 0 1 18.31 18.31v139.02a18.234 18.234 0 0 1-18.31 18.31z"/><path d="M272.954 253.287v3.052c0 9.494-7.46 16.954-16.954 16.954H140.715c-9.494 0-16.954-7.46-16.954-16.954v-3.052c0-9.494 7.46-16.954 16.954-16.954H256c9.494.001 16.954 7.46 16.954 16.954z"/></g><g fill="#646b79"><path d="M246.506 56.625h16.615v22.718h-16.615zm0 373.319h16.615v22.718h-16.615zm183.438-183.438h22.718v16.615h-22.718zm-373.319 0h22.718v16.615H56.625z"/><circle cx="254.644" cy="254.644" r="41.367"/></g><circle cx="254.644" cy="254.644" r="18.31" fill="#f0582f"/></svg>